HIERARCHY
ROOT Hips
{
	OFFSET 0.000000 0.000000 0.000000
	CHANNELS 6 Xposition Yposition Zposition Xrotation Yrotation Zrotation
	JOINT LeftUpLeg_virtual
	{
		OFFSET 0.000000 0.000000 0.000000
		CHANNELS 3 Xrotation Yrotation Zrotation
		JOINT LeftUpLeg
		{
			OFFSET 13.026900 -6.336304 -1.092800
			CHANNELS 3 Xrotation Yrotation Zrotation
			JOINT LeftLeg
			{
				OFFSET 0.524474 -46.096886 9.782700
				CHANNELS 3 Xrotation Yrotation Zrotation
				JOINT LeftFoot
				{
					OFFSET -0.524474 -53.427422 -12.948200
					CHANNELS 3 Xrotation Yrotation Zrotation
					JOINT LeftToeBase
					{
						OFFSET 0.192200 -14.009700 16.364100
						CHANNELS 3 Xrotation Yrotation Zrotation
						JOINT LeftToe_End
						{
							OFFSET -1.784700 -0.561700 9.474800
							CHANNELS 3 Xrotation Yrotation Zrotation
							End Site
							{
								OFFSET 0 0 0
							}
						}
					}
				}
			}
		}
	}
	JOINT RightUpLeg_virtual
	{
		OFFSET 0.000000 0.000000 0.000000
		CHANNELS 3 Xrotation Yrotation Zrotation
		JOINT RightUpLeg
		{
			OFFSET -12.883000 -6.336304 -1.092800
			CHANNELS 3 Xrotation Yrotation Zrotation
			JOINT RightLeg
			{
				OFFSET -0.524587 -46.096825 9.782800
				CHANNELS 3 Xrotation Yrotation Zrotation
				JOINT RightFoot
				{
					OFFSET 0.524587 -53.427383 -12.948300
					CHANNELS 3 Xrotation Yrotation Zrotation
					JOINT RightToeBase
					{
						OFFSET -0.192200 -14.009700 16.364100
						CHANNELS 3 Xrotation Yrotation Zrotation
						JOINT RightToe_End
						{
							OFFSET 1.784700 -0.561700 9.474800
							CHANNELS 3 Xrotation Yrotation Zrotation
							End Site
							{
								OFFSET 0 0 0
							}
						}
					}
				}
			}
		}
	}
	JOINT Spine_virtual
	{
		OFFSET 0.000000 0.000000 0.000000
		CHANNELS 3 Xrotation Yrotation Zrotation
		JOINT Spine
		{
			OFFSET 0.072000 7.257294 -0.789700
			CHANNELS 3 Xrotation Yrotation Zrotation
			JOINT Spine1
			{
				OFFSET 0.000000 12.508769 -0.658067
				CHANNELS 3 Xrotation Yrotation Zrotation
				JOINT Spine1_split
				{
					OFFSET 0.000000 12.508769 -0.658067
					CHANNELS 3 Xrotation Yrotation Zrotation
					JOINT Spine2
					{
						OFFSET 0.000000 12.508769 -0.658067
						CHANNELS 3 Xrotation Yrotation Zrotation
						JOINT Neck_virtual
						{
							OFFSET 0.000000 0.000000 0.000000
							CHANNELS 3 Xrotation Yrotation Zrotation
							JOINT Neck
							{
								OFFSET 0.000000 14.033295 7.520400
								CHANNELS 3 Xrotation Yrotation Zrotation
								JOINT Head
								{
									OFFSET 0.000000 8.198502 5.703100
									CHANNELS 3 Xrotation Yrotation Zrotation
									JOINT HeadTop_End
									{
										OFFSET 0.000000 17.760803 13.332701
										CHANNELS 3 Xrotation Yrotation Zrotation
										End Site
										{
											OFFSET 0 0 0
										}
									}
								}
							}
						}
						JOINT LeftShoulder_virtual
						{
							OFFSET 0.000000 0.000000 0.000000
							CHANNELS 3 Xrotation Yrotation Zrotation
							JOINT LeftShoulder
							{
								OFFSET 6.292450 5.785301 -0.669000
								CHANNELS 3 Xrotation Yrotation Zrotation
								JOINT LeftShoulder_split
								{
									OFFSET 6.292450 5.785301 -0.669000
									CHANNELS 3 Xrotation Yrotation Zrotation
									JOINT LeftArm
									{
										OFFSET 13.907140 -6.093903 1.965100
										CHANNELS 3 Xrotation Yrotation Zrotation
										JOINT LeftForeArm
										{
											OFFSET 34.140198 0.000000 0.000000
											CHANNELS 3 Xrotation Yrotation Zrotation
											JOINT LeftHand
											{
												OFFSET 40.960209 0.000000 0.000000
												CHANNELS 3 Xrotation Yrotation Zrotation
												End Site
												{
													OFFSET 0 0 0
												}
											}
										}
									}
								}
							}
						}
						JOINT RightShoulder_virtual
						{
							OFFSET 0.000000 0.000000 0.000000
							CHANNELS 3 Xrotation Yrotation Zrotation
							JOINT RightShoulder
							{
								OFFSET -6.292450 5.785301 -0.669000
								CHANNELS 3 Xrotation Yrotation Zrotation
								JOINT RightShoulder_split
								{
									OFFSET -6.292450 5.785301 -0.669000
									CHANNELS 3 Xrotation Yrotation Zrotation
									JOINT RightArm
									{
										OFFSET -13.907140 -6.093903 1.965100
										CHANNELS 3 Xrotation Yrotation Zrotation
										JOINT RightForeArm
										{
											OFFSET -34.140198 0.000000 0.000000
											CHANNELS 3 Xrotation Yrotation Zrotation
											JOINT RightHand
											{
												OFFSET -40.960209 0.000000 0.000000
												CHANNELS 3 Xrotation Yrotation Zrotation
												End Site
												{
													OFFSET 0 0 0
												}
											}
										}
									}
								}
							}
						}
					}
				}
			}
		}
	}
}
MOTION
Frames: 11
Frame Time: 0.03333333
4.116282 109.962662 -17.536716 0.000000 0.000000 0.000000 5.243590 -45.065158 2.014820 -37.794988 3.028390 14.997460 28.718859 -7.907927 2.502985 13.420882 -7.036164 -12.367563 -6.818791 -2.032525 -2.012244 0.000000 0.000000 0.000000 6.169608 -41.168678 1.918176 3.623219 -22.189540 -6.593139 20.101703 6.733623 -2.360007 -21.904260 -22.681639 21.418071 -0.585042 2.985799 -8.990916 0.000000 0.000000 0.000000 1.835447 -36.726467 0.422007 1.350841 6.383544 0.110523 11.910686 6.861564 -0.853573 0.105113 -1.205119 0.026278 0.000000 0.000000 0.000000 14.459674 8.402430 -1.605256 -6.583997 5.518458 0.960424 -5.859932 -5.132753 9.327862 0.000000 0.000000 0.000000 9.783845 7.109705 -1.290436 2.475273 -3.010650 -1.456239 5.481131 1.404075 -8.877707 -25.307733 11.109739 -59.701352 -1.317259 -46.204543 -8.978222 0.000000 0.000000 0.000000 12.761009 7.198805 -0.231291 0.793555 -1.382114 4.175732 -4.738587 9.015229 -0.000388 0.871447 -25.189353 56.297592 -15.015636 36.232149 13.845507 0.000000 0.000000 0.000000 
4.187172 111.443199 -17.072689 0.000000 0.000000 0.000000 6.796125 -43.844084 2.357717 -37.034078 2.261698 14.503575 26.182495 -7.285700 2.879306 11.653610 -6.498886 -10.853304 -5.158954 -1.789636 -2.880687 0.000000 0.000000 0.000000 7.041411 -40.568294 2.116770 2.848621 -22.707010 -6.952306 17.107582 6.774815 -1.903388 -21.341838 -21.651078 20.106868 0.490608 2.866995 -8.564288 0.000000 0.000000 0.000000 3.653984 -36.824350 0.655025 0.552043 6.143739 0.564433 12.233599 6.696951 -0.858323 0.088162 -0.937177 0.031523 0.000000 0.000000 0.000000 14.401449 8.194318 -1.440410 -6.583723 5.440916 1.205420 -6.566792 -3.132941 9.125276 0.000000 0.000000 0.000000 10.136674 6.970159 -1.289327 2.617420 -2.736008 -1.340598 4.922179 2.798813 -8.488808 -24.130404 12.715886 -59.817089 -0.766612 -45.042775 -8.381373 0.000000 0.000000 0.000000 13.332676 7.162377 -0.404100 0.825431 -0.275361 4.400161 -6.656561 7.904969 -1.052340 -1.322416 -25.084273 55.428112 -15.632823 37.210782 13.950043 0.000000 0.000000 0.000000 
4.701105 113.093979 -16.885769 0.000000 0.000000 0.000000 8.579872 -42.310440 2.889726 -36.114618 2.175677 13.858291 22.089156 -6.423276 3.356776 10.168717 -5.491452 -11.592827 -2.253158 -1.702688 -3.020833 0.000000 0.000000 0.000000 8.375697 -40.022221 2.653128 -0.247596 -22.304799 -7.515372 15.955278 6.966237 -1.218250 -19.540358 -20.004905 16.110721 0.550122 2.646071 -7.414870 0.000000 0.000000 0.000000 6.206986 -36.692630 1.004886 0.097040 5.544966 1.039656 12.553038 6.269046 -0.954266 0.164741 -0.683448 0.038207 0.000000 0.000000 0.000000 14.403511 7.709921 -1.397430 -7.790464 5.716749 2.136513 -7.717752 -0.145081 9.062905 0.000000 0.000000 0.000000 10.588967 6.542573 -1.455804 2.775487 -2.223000 -0.458314 4.271541 3.666547 -7.319729 -22.886898 14.816396 -61.460733 0.364621 -44.356054 -7.106918 0.000000 0.000000 0.000000 13.902467 6.850219 -0.755975 1.209734 1.416901 4.455960 -7.374545 6.214632 -1.218303 -4.902198 -22.803596 54.113745 -16.422678 37.859342 13.592167 0.000000 0.000000 0.000000 
5.595314 114.154243 -16.884602 0.000000 0.000000 0.000000 10.422969 -41.283566 3.676191 -35.894362 2.635428 12.839283 18.131654 -5.749216 4.152414 9.845556 -4.516512 -14.550205 0.527017 -1.743017 -2.342573 0.000000 0.000000 0.000000 10.056582 -39.612608 3.537306 -5.108599 -21.260244 -7.783541 17.567832 7.399886 -0.536383 -17.416345 -18.059971 9.528572 -0.680859 2.255058 -5.864327 0.000000 0.000000 0.000000 8.771425 -36.060127 1.546089 0.119586 4.635962 1.383087 12.893504 5.583703 -1.174591 0.200194 -0.400336 0.053858 0.000000 0.000000 0.000000 14.613014 6.999252 -1.562891 -10.117960 6.209573 3.725007 -9.273967 3.785097 9.286134 0.000000 0.000000 0.000000 11.200538 5.838710 -1.794732 2.960283 -1.612371 1.006971 3.922007 3.772529 -5.778160 -22.390352 16.311701 -64.016406 1.668935 -43.155830 -5.497425 0.000000 0.000000 0.000000 14.514000 6.274684 -1.236381 1.918781 3.477419 4.407524 -7.397961 4.387959 -0.753839 -8.977226 -18.559345 53.254626 -17.274568 38.324099 12.771424 0.000000 0.000000 0.000000 
6.616565 114.000168 -16.830448 0.000000 0.000000 0.000000 12.229658 -40.396911 4.780867 -37.113192 4.160271 11.501584 15.501483 -4.863714 5.269506 10.326070 -3.949792 -17.832014 2.032752 -1.936099 -1.033084 0.000000 0.000000 0.000000 11.649548 -39.354867 4.571059 -11.592960 -20.200546 -7.623399 22.663596 8.051327 -0.106010 -15.403811 -16.048822 1.540588 -2.999502 1.721894 -4.597761 0.000000 0.000000 0.000000 10.883264 -34.558346 2.212030 0.672677 3.573659 1.464358 13.340817 4.695693 -1.537989 0.274557 -0.189687 0.164294 0.000000 0.000000 0.000000 15.066436 6.110066 -1.951233 -13.390120 6.716858 5.780203 -11.267708 8.264091 9.974533 0.000000 0.000000 0.000000 12.014894 4.907873 -2.293521 3.171868 -1.083854 2.797207 3.760824 2.974798 -4.264506 -22.706431 16.614604 -66.482234 2.557854 -41.049201 -4.023466 0.000000 0.000000 0.000000 15.190201 5.463639 -1.789785 2.843164 5.611743 4.134042 -7.223542 3.150408 -0.029020 -13.056162 -13.301256 53.139527 -18.490738 39.397313 11.834802 0.000000 0.000000 0.000000 
7.449426 112.266800 -16.525845 0.000000 0.000000 0.000000 13.808388 -38.833969 6.029532 -40.467566 6.473634 9.858615 14.866274 -4.024170 6.688910 11.723065 -4.621365 -20.783033 1.517343 -2.289636 0.722409 0.000000 0.000000 0.000000 13.247240 -38.313997 5.820780 -18.813227 -19.599894 -7.089989 31.269600 9.238308 -0.087628 -13.649006 -13.898492 -6.059563 -6.320295 1.181169 -4.292594 0.000000 0.000000 0.000000 12.496249 -31.734643 2.880605 1.740410 2.522741 1.290240 14.017707 3.664878 -2.030681 0.309988 -0.118981 0.171851 0.000000 0.000000 0.000000 15.842808 5.104403 -2.510281 -17.239491 7.047702 8.030273 -13.436061 13.163976 11.191458 0.000000 0.000000 0.000000 13.129317 3.807340 -2.887315 3.374673 -0.692994 4.613615 3.876406 1.655087 -3.060211 -23.956223 15.667114 -67.803069 2.664394 -38.591313 -2.963117 0.000000 0.000000 0.000000 16.058386 4.453889 -2.378624 3.864248 7.593243 3.509961 -6.626314 2.936669 0.904874 -16.998480 -8.330189 53.586577 -20.407459 41.960827 11.278262 0.000000 0.000000 0.000000 
7.936240 109.138916 -16.446178 0.000000 0.000000 0.000000 15.003875 -35.891780 7.139526 -46.472471 8.551606 8.341706 16.418595 -4.396156 8.312339 14.374338 -7.194550 -24.611405 -0.114247 -2.690148 2.497498 0.000000 0.000000 0.000000 15.184593 -35.306979 7.135995 -25.946284 -19.488700 -6.406425 42.157037 11.439074 -0.837820 -12.853821 -11.242784 -11.331516 -10.145482 0.871882 -5.332768 0.000000 0.000000 0.000000 13.870642 -27.536941 3.525103 3.243338 1.568409 0.866752 15.009517 2.469020 -2.629464 0.273849 -0.160255 0.144035 0.000000 0.000000 0.000000 16.950834 3.990182 -3.143467 -21.334651 7.139610 10.089952 -15.568173 17.888252 12.796295 0.000000 0.000000 0.000000 14.524206 2.577455 -3.534988 3.564823 -0.453118 6.017383 4.245339 0.087468 -1.664126 -26.015144 13.569856 -67.447360 1.965063 -37.198699 -2.354885 0.000000 0.000000 0.000000 17.225413 3.301205 -3.000401 4.899744 9.445259 2.571135 -5.497254 3.857302 1.858852 -21.044901 -4.884214 54.088384 -23.259084 46.301531 11.651060 0.000000 0.000000 0.000000 
8.029204 104.781754 -17.134335 0.000000 0.000000 0.000000 16.138205 -30.822390 7.810123 -54.453888 10.448508 7.006607 19.257845 -4.851439 9.665635 15.957197 -10.209908 -27.312383 -1.304076 -3.110431 3.974836 0.000000 0.000000 0.000000 17.266952 -30.220572 8.029763 -32.208402 -19.606210 -5.594618 53.484971 14.299525 -2.495669 -13.943338 -7.857649 -14.037266 -13.374075 1.056346 -7.636345 0.000000 0.000000 0.000000 15.338803 -22.413800 3.969828 4.976031 0.754805 0.401435 16.345751 1.145358 -3.249807 0.190674 -0.199168 0.109680 0.000000 0.000000 0.000000 18.335545 2.790888 -3.733795 -25.238696 7.064607 11.622089 -17.584303 22.435763 14.429142 0.000000 0.000000 0.000000 16.138704 1.333551 -4.151071 3.721887 -0.193648 6.780405 4.604983 -1.390416 -0.636673 -28.244366 10.529344 -65.124167 0.753248 -38.527072 -2.200576 0.000000 0.000000 0.000000 18.652121 2.087427 -3.599379 5.892648 11.249201 1.291610 -4.231038 4.836924 2.413849 -24.873307 -3.482420 53.916601 -27.303265 51.746801 13.482780 0.000000 0.000000 0.000000 
7.984633 99.475510 -18.136524 0.000000 0.000000 0.000000 17.642621 -23.815089 7.881095 -63.370905 11.582068 5.908823 23.544980 -4.556961 10.283583 15.576376 -12.359523 -27.865275 -0.907633 -3.450625 4.879323 0.000000 0.000000 0.000000 19.560846 -23.635004 8.181556 -37.262848 -19.835698 -4.562670 64.212371 16.918095 -4.867868 -17.281456 -4.442061 -15.084874 -14.716510 1.655413 -10.536730 0.000000 0.000000 0.000000 17.241409 -16.630232 4.146513 6.713481 0.130268 0.172901 17.874976 -0.220399 -3.784985 0.044933 -0.197051 0.072968 0.000000 0.000000 0.000000 19.837130 1.541493 -4.188716 -28.436705 7.016474 12.508702 -19.519344 26.733068 15.817031 0.000000 0.000000 0.000000 17.841849 0.143321 -4.691990 3.863670 0.052342 6.918304 5.352172 -2.969862 0.132005 -29.924329 6.943149 -60.771991 -0.579965 -43.065002 -2.542801 0.000000 0.000000 0.000000 20.264044 0.889183 -4.120809 6.849940 13.273972 -0.160228 -2.849829 5.185990 2.754355 -28.345251 -3.724328 52.446151 -32.359531 56.867564 16.783423 0.000000 0.000000 0.000000 
7.926349 93.624153 -19.628811 0.000000 0.000000 0.000000 19.541308 -15.751106 7.265857 -73.202266 11.251371 5.747284 31.160310 -4.016836 10.035199 14.537841 -13.557945 -27.315803 1.616453 -3.538495 4.620945 0.000000 0.000000 0.000000 21.962927 -16.263720 7.455386 -41.987932 -20.212591 -3.867127 73.814640 18.422980 -7.291238 -22.185486 -2.197652 -15.100257 -13.992042 2.331475 -13.269218 0.000000 0.000000 0.000000 19.737616 -10.721848 3.960216 8.333001 -0.258329 0.282689 19.399168 -1.538770 -4.206967 -0.029428 -0.099541 0.118262 0.000000 0.000000 0.000000 21.218061 0.286952 -4.473464 -30.614851 7.167636 12.719793 -21.697486 30.483244 16.927471 0.000000 0.000000 0.000000 19.409545 -0.962306 -5.159290 4.018931 0.287710 6.495196 6.348907 -4.416453 0.874530 -30.764401 3.204864 -54.901839 -2.015635 -50.030357 -3.567388 0.000000 0.000000 0.000000 21.836721 -0.213746 -4.503470 7.777309 15.688292 -1.464103 -1.334583 5.177971 3.093062 -31.249451 -4.259598 49.356067 -37.530233 60.484986 20.663271 0.000000 0.000000 0.000000 
7.936171 87.517632 -21.446354 0.000000 0.000000 0.000000 21.822979 -7.916098 6.046083 -83.344953 9.345556 6.911897 43.462287 -2.903138 8.543070 13.921415 -13.650592 -25.503600 4.135387 -3.589038 3.241038 0.000000 0.000000 0.000000 24.435046 -8.880728 6.060376 -47.826672 -20.445717 -4.214647 82.401397 18.580041 -9.139289 -27.068134 -1.922843 -14.505027 -12.555100 2.865826 -15.136150 0.000000 0.000000 0.000000 22.875026 -5.386161 3.406137 9.608708 -0.339361 0.705235 20.678910 -2.604044 -4.489166 -0.022135 0.057712 0.187378 0.000000 0.000000 0.000000 22.258451 -0.858822 -4.580918 -31.401972 7.615181 12.300289 -23.932839 33.436720 17.924641 0.000000 0.000000 0.000000 20.633067 -1.919529 -5.539481 4.094283 0.494926 5.821493 7.900826 -5.127172 1.407981 -31.323985 -0.862825 -48.170001 -3.837704 -58.131235 -5.579257 0.000000 0.000000 0.000000 23.131011 -1.142062 -4.731332 8.669145 18.529110 -2.313931 0.176658 4.723869 3.432664 -33.847286 -3.869619 44.930385 -41.097935 62.110366 23.374210 0.000000 0.000000 0.000000 
